<?xml version="1.0" encoding="UTF-8" standalone="no"?>
<!DOCTYPE svg PUBLIC "-//W3C//DTD SVG 1.1//EN"
 "http://www.w3.org/Graphics/SVG/1.1/DTD/svg11.dtd">
<!-- Generated by graphviz version 2.43.0 (0)
 -->
<!-- Title: GALBA2 Pages: 1 -->
<svg width="1214pt" height="1486pt"
 viewBox="0.00 0.00 1214.10 1485.60" xmlns="http://www.w3.org/2000/svg" xmlns:xlink="http://www.w3.org/1999/xlink">
<g id="graph0" class="graph" transform="scale(1 1) rotate(0) translate(28.8 1456.8)">
<title>GALBA2</title>
<polygon fill="white" stroke="transparent" points="-28.8,28.8 -28.8,-1456.8 1185.3,-1456.8 1185.3,28.8 -28.8,28.8"/>
<g id="clust1" class="cluster">
<title>cluster_inputs</title>
<path fill="#fafafa" stroke="#888888" d="M764.5,-1276C764.5,-1276 1136.5,-1276 1136.5,-1276 1142.5,-1276 1148.5,-1282 1148.5,-1288 1148.5,-1288 1148.5,-1408 1148.5,-1408 1148.5,-1414 1142.5,-1420 1136.5,-1420 1136.5,-1420 764.5,-1420 764.5,-1420 758.5,-1420 752.5,-1414 752.5,-1408 752.5,-1408 752.5,-1288 752.5,-1288 752.5,-1282 758.5,-1276 764.5,-1276"/>
<text text-anchor="middle" x="950.5" y="-1401.6" font-family="Helvetica,sans-Serif" font-weight="bold" font-size="18.00">INPUTS</text>
</g>
<g id="clust3" class="cluster">
<title>cluster_outputs</title>
<path fill="#fafafa" stroke="#888888" d="M68.5,-201C68.5,-201 964.5,-201 964.5,-201 970.5,-201 976.5,-207 976.5,-213 976.5,-213 976.5,-321 976.5,-321 976.5,-327 970.5,-333 964.5,-333 964.5,-333 68.5,-333 68.5,-333 62.5,-333 56.5,-327 56.5,-321 56.5,-321 56.5,-213 56.5,-213 56.5,-207 62.5,-201 68.5,-201"/>
<text text-anchor="middle" x="516.5" y="-314.6" font-family="Helvetica,sans-Serif" font-weight="bold" font-size="18.00">OUTPUTS</text>
</g>
<g id="clust5" class="cluster">
<title>cluster_legend</title>
<path fill="#ffffff" stroke="#888888" d="M232.5,-8C232.5,-8 769.5,-8 769.5,-8 775.5,-8 781.5,-14 781.5,-20 781.5,-20 781.5,-130 781.5,-130 781.5,-136 775.5,-142 769.5,-142 769.5,-142 232.5,-142 232.5,-142 226.5,-142 220.5,-136 220.5,-130 220.5,-130 220.5,-20 220.5,-20 220.5,-14 226.5,-8 232.5,-8"/>
<text text-anchor="middle" x="501" y="-123.6" font-family="Helvetica,sans-Serif" font-weight="bold" font-size="18.00">LEGEND</text>
</g>
<!-- in_genome -->
<g id="node1" class="node">
<title>in_genome</title>
<path fill="#fdd9b4" stroke="#333333" stroke-width="1.5" d="M914.16,-1378C914.16,-1378 811.44,-1378 811.44,-1378 805.44,-1378 797.35,-1372.37 795.27,-1366.75 795.27,-1366.75 771.01,-1301.25 771.01,-1301.25 768.92,-1295.63 772.84,-1290 778.84,-1290 778.84,-1290 881.56,-1290 881.56,-1290 887.56,-1290 895.65,-1295.63 897.73,-1301.25 897.73,-1301.25 921.99,-1366.75 921.99,-1366.75 924.08,-1372.37 920.16,-1378 914.16,-1378"/>
<text text-anchor="middle" x="846.5" y="-1339.2" font-family="Helvetica,sans-Serif" font-size="16.00">Genome</text>
<text text-anchor="middle" x="846.5" y="-1321.2" font-family="Helvetica,sans-Serif" font-size="16.00">FASTA</text>
</g>
<!-- masking -->
<g id="node3" class="node">
<title>masking</title>
<path fill="#d9ead3" stroke="#333333" stroke-width="1.4" stroke-dasharray="5,2" d="M806,-1233C806,-1233 655,-1233 655,-1233 649,-1233 643,-1227 643,-1221 643,-1221 643,-1169 643,-1169 643,-1163 649,-1157 655,-1157 655,-1157 806,-1157 806,-1157 812,-1157 818,-1163 818,-1169 818,-1169 818,-1221 818,-1221 818,-1227 812,-1233 806,-1233"/>
<text text-anchor="middle" x="730.5" y="-1209.2" font-family="Helvetica,sans-Serif" font-size="16.00">Repeat masking</text>
<text text-anchor="middle" x="730.5" y="-1191.2" font-family="Helvetica,sans-Serif" font-size="16.00">(RepeatModeler2 +</text>
<text text-anchor="middle" x="730.5" y="-1173.2" font-family="Helvetica,sans-Serif" font-size="16.00">RepeatMasker)</text>
</g>
<!-- in_genome&#45;&gt;masking -->
<g id="edge1" class="edge">
<title>in_genome&#45;&gt;masking</title>
<path fill="none" stroke="#555555" stroke-width="1.4" stroke-dasharray="5,2" d="M779.35,-1289.9C771.69,-1283.19 764.5,-1275.85 758.5,-1268 752.76,-1260.49 748.05,-1251.65 744.25,-1242.79"/>
<polygon fill="#555555" stroke="#555555" stroke-width="1.4" points="747.41,-1241.25 740.48,-1233.23 740.89,-1243.82 747.41,-1241.25"/>
<text text-anchor="middle" x="795.5" y="-1256.8" font-family="Helvetica,sans-Serif" font-size="14.00">if unmasked</text>
</g>
<!-- miniprot -->
<g id="node4" class="node">
<title>miniprot</title>
<path fill="#c9daf8" stroke="#333333" stroke-width="1.6" d="M947,-1116C947,-1116 746,-1116 746,-1116 740,-1116 734,-1110 734,-1104 734,-1104 734,-1015 734,-1015 734,-1009 740,-1003 746,-1003 746,-1003 947,-1003 947,-1003 953,-1003 959,-1009 959,-1015 959,-1015 959,-1104 959,-1104 959,-1110 953,-1116 947,-1116"/>
<text text-anchor="middle" x="846.5" y="-1092.2" font-family="Helvetica,sans-Serif" font-size="16.00">Protein alignment</text>
<text text-anchor="middle" x="846.5" y="-1074.2" font-family="Helvetica,sans-Serif" font-size="16.00">(miniprot)</text>
<text text-anchor="middle" x="846.5" y="-1037.2" font-family="Helvetica,sans-Serif" font-size="16.00">miniprot · boundary scorer</text>
<text text-anchor="middle" x="846.5" y="-1019.2" font-family="Helvetica,sans-Serif" font-size="16.00">miniprothint</text>
</g>
<!-- in_genome&#45;&gt;miniprot -->
<g id="edge2" class="edge">
<title>in_genome&#45;&gt;miniprot</title>
<path fill="none" stroke="#555555" stroke-width="1.4" d="M846.5,-1289.82C846.5,-1245.88 846.5,-1177.19 846.5,-1126.43"/>
<polygon fill="#555555" stroke="#555555" stroke-width="1.4" points="850,-1126.21 846.5,-1116.21 843,-1126.21 850,-1126.21"/>
</g>
<!-- in_proteins -->
<g id="node2" class="node">
<title>in_proteins</title>
<path fill="#fdd9b4" stroke="#333333" stroke-width="1.5" d="M1122.76,-1378C1122.76,-1378 995.22,-1378 995.22,-1378 989.22,-1378 980.79,-1372.51 978.36,-1367.03 978.36,-1367.03 949.1,-1300.97 949.1,-1300.97 946.67,-1295.49 950.24,-1290 956.24,-1290 956.24,-1290 1083.78,-1290 1083.78,-1290 1089.78,-1290 1098.21,-1295.49 1100.64,-1300.97 1100.64,-1300.97 1129.9,-1367.03 1129.9,-1367.03 1132.33,-1372.51 1128.76,-1378 1122.76,-1378"/>
<text text-anchor="middle" x="1039.5" y="-1339.2" font-family="Helvetica,sans-Serif" font-size="16.00">Protein DB</text>
<text text-anchor="middle" x="1039.5" y="-1321.2" font-family="Helvetica,sans-Serif" font-size="16.00">FASTA</text>
</g>
<!-- in_proteins&#45;&gt;miniprot -->
<g id="edge4" class="edge">
<title>in_proteins&#45;&gt;miniprot</title>
<path fill="none" stroke="#555555" stroke-width="1.4" d="M1008.92,-1289.82C977.4,-1245.33 927.92,-1175.46 891.85,-1124.53"/>
<polygon fill="#555555" stroke="#555555" stroke-width="1.4" points="894.59,-1122.35 885.96,-1116.21 888.88,-1126.39 894.59,-1122.35"/>
</g>
<!-- postprocess -->
<g id="node7" class="node">
<title>postprocess</title>
<path fill="#d0e0e3" stroke="#333333" stroke-width="1.6" d="M939,-629C939,-629 754,-629 754,-629 748,-629 742,-623 742,-617 742,-617 742,-528 742,-528 742,-522 748,-516 754,-516 754,-516 939,-516 939,-516 945,-516 951,-522 951,-528 951,-528 951,-617 951,-617 951,-623 945,-629 939,-629"/>
<text text-anchor="middle" x="846.5" y="-605.2" font-family="Helvetica,sans-Serif" font-size="16.00">Postprocessing</text>
<text text-anchor="middle" x="846.5" y="-568.2" font-family="Helvetica,sans-Serif" font-size="16.00">fix in&#45;frame stop codons</text>
<text text-anchor="middle" x="846.5" y="-550.2" font-family="Helvetica,sans-Serif" font-size="16.00">filter · normalize CDS</text>
<text text-anchor="middle" x="846.5" y="-532.2" font-family="Helvetica,sans-Serif" font-size="16.00">DIAMOND filter · GFF3</text>
</g>
<!-- in_proteins&#45;&gt;postprocess -->
<g id="edge9" class="edge">
<title>in_proteins&#45;&gt;postprocess</title>
<path fill="none" stroke="#555555" stroke-width="1.4" stroke-dasharray="5,2" d="M1027.03,-1289.9C1020.36,-1263.11 1013.5,-1227.84 1013.5,-1196 1013.5,-1196 1013.5,-1196 1013.5,-725.5 1013.5,-687.35 989.37,-656.24 959.46,-632.34"/>
<polygon fill="#555555" stroke="#555555" stroke-width="1.4" points="961.38,-629.4 951.32,-626.1 957.13,-634.96 961.38,-629.4"/>
<text text-anchor="middle" x="1046.5" y="-971.8" font-family="Helvetica,sans-Serif" font-size="14.00">DIAMOND</text>
<text text-anchor="middle" x="1046.5" y="-956.8" font-family="Helvetica,sans-Serif" font-size="14.00">filter</text>
</g>
<!-- masking&#45;&gt;miniprot -->
<g id="edge3" class="edge">
<title>masking&#45;&gt;miniprot</title>
<path fill="none" stroke="#555555" stroke-width="1.4" stroke-dasharray="5,2" d="M762.81,-1156.81C771.69,-1146.6 781.58,-1135.22 791.35,-1123.97"/>
<polygon fill="#555555" stroke="#555555" stroke-width="1.4" points="794.17,-1126.06 798.09,-1116.21 788.89,-1121.47 794.17,-1126.06"/>
</g>
<!-- hints -->
<g id="node5" class="node">
<title>hints</title>
<path fill="#c9daf8" stroke="#333333" stroke-width="1.5" d="M947,-933C947,-933 746,-933 746,-933 740,-933 734,-927 734,-921 734,-921 734,-850 734,-850 734,-844 740,-838 746,-838 746,-838 947,-838 947,-838 953,-838 959,-844 959,-850 959,-850 959,-921 959,-921 959,-927 953,-933 947,-933"/>
<text text-anchor="middle" x="846.5" y="-909.2" font-family="Helvetica,sans-Serif" font-size="16.00">Protein&#45;derived hints</text>
<text text-anchor="middle" x="846.5" y="-872.2" font-family="Helvetica,sans-Serif" font-size="16.00">CDSpart (training genes)</text>
<text text-anchor="middle" x="846.5" y="-854.2" font-family="Helvetica,sans-Serif" font-size="16.00">HC chains · LC multiplicity</text>
</g>
<!-- miniprot&#45;&gt;hints -->
<g id="edge5" class="edge">
<title>miniprot&#45;&gt;hints</title>
<path fill="none" stroke="#555555" stroke-width="1.4" d="M846.5,-1002.66C846.5,-983.62 846.5,-962.32 846.5,-943.21"/>
<polygon fill="#555555" stroke="#555555" stroke-width="1.4" points="850,-943.14 846.5,-933.14 843,-943.14 850,-943.14"/>
<text text-anchor="middle" x="861" y="-964.3" font-family="Helvetica,sans-Serif" font-size="14.00">hints</text>
</g>
<!-- augustus -->
<g id="node6" class="node">
<title>augustus</title>
<path fill="#fff2cc" stroke="#333333" stroke-width="1.6" d="M933,-783C933,-783 760,-783 760,-783 754,-783 748,-777 748,-771 748,-771 748,-682 748,-682 748,-676 754,-670 760,-670 760,-670 933,-670 933,-670 939,-670 945,-676 945,-682 945,-682 945,-771 945,-771 945,-777 939,-783 933,-783"/>
<text text-anchor="middle" x="846.5" y="-759.2" font-family="Helvetica,sans-Serif" font-size="16.00">AUGUSTUS</text>
<text text-anchor="middle" x="846.5" y="-741.2" font-family="Helvetica,sans-Serif" font-size="16.00">training + prediction</text>
<text text-anchor="middle" x="846.5" y="-704.2" font-family="Helvetica,sans-Serif" font-size="16.00">(etraining · optimize ·</text>
<text text-anchor="middle" x="846.5" y="-686.2" font-family="Helvetica,sans-Serif" font-size="16.00">hint&#45;guided prediction)</text>
</g>
<!-- miniprot&#45;&gt;augustus -->
<g id="edge6" class="edge">
<title>miniprot&#45;&gt;augustus</title>
<path fill="none" stroke="#555555" stroke-width="1.4" d="M742.43,-1002.77C717.62,-984.11 694.34,-960.82 680.5,-933 661.69,-895.2 660.56,-875.22 680.5,-838 693.95,-812.88 715.91,-792.5 739.52,-776.39"/>
<polygon fill="#555555" stroke="#555555" stroke-width="1.4" points="741.48,-779.29 747.92,-770.88 737.64,-773.44 741.48,-779.29"/>
<text text-anchor="middle" x="703" y="-889.3" font-family="Helvetica,sans-Serif" font-size="14.00">training</text>
<text text-anchor="middle" x="703" y="-874.3" font-family="Helvetica,sans-Serif" font-size="14.00">genes</text>
</g>
<!-- hints&#45;&gt;augustus -->
<g id="edge7" class="edge">
<title>hints&#45;&gt;augustus</title>
<path fill="none" stroke="#555555" stroke-width="1.4" stroke-dasharray="5,2" d="M846.5,-837.82C846.5,-823.87 846.5,-808.3 846.5,-793.36"/>
<polygon fill="#555555" stroke="#555555" stroke-width="1.4" points="850,-793.14 846.5,-783.14 843,-793.14 850,-793.14"/>
<text text-anchor="middle" x="869.5" y="-806.8" font-family="Helvetica,sans-Serif" font-size="14.00">hintsfile</text>
</g>
<!-- augustus&#45;&gt;postprocess -->
<g id="edge8" class="edge">
<title>augustus&#45;&gt;postprocess</title>
<path fill="none" stroke="#555555" stroke-width="1.4" d="M846.5,-669.76C846.5,-659.85 846.5,-649.44 846.5,-639.28"/>
<polygon fill="#555555" stroke="#555555" stroke-width="1.4" points="850,-639.23 846.5,-629.23 843,-639.23 850,-639.23"/>
</g>
<!-- ncrna -->
<g id="node8" class="node">
<title>ncrna</title>
<path fill="#e6d5f0" stroke="#333333" stroke-width="1.4" stroke-dasharray="5,2" d="M231,-466C231,-466 12,-466 12,-466 6,-466 0,-460 0,-454 0,-454 0,-383 0,-383 0,-377 6,-371 12,-371 12,-371 231,-371 231,-371 237,-371 243,-377 243,-383 243,-383 243,-454 243,-454 243,-460 237,-466 231,-466"/>
<text text-anchor="middle" x="121.5" y="-442.2" font-family="Helvetica,sans-Serif" font-size="16.00">ncRNA annotation &#160;(optional)</text>
<text text-anchor="middle" x="121.5" y="-405.2" font-family="Helvetica,sans-Serif" font-size="16.00">barrnap · tRNAscan&#45;SE</text>
<text text-anchor="middle" x="121.5" y="-387.2" font-family="Helvetica,sans-Serif" font-size="16.00">Infernal + Rfam</text>
</g>
<!-- postprocess&#45;&gt;ncrna -->
<g id="edge10" class="edge">
<title>postprocess&#45;&gt;ncrna</title>
<path fill="none" stroke="#555555" stroke-width="1.4" stroke-dasharray="5,2" d="M741.89,-562.29C621.72,-549.94 419.48,-523.69 251.5,-475 245.76,-473.34 239.94,-471.49 234.1,-469.5"/>
<polygon fill="#555555" stroke="#555555" stroke-width="1.4" points="234.87,-466.06 224.27,-466.05 232.54,-472.67 234.87,-466.06"/>
</g>
<!-- fantasia -->
<g id="node9" class="node">
<title>fantasia</title>
<path fill="#a2c4c9" stroke="#333333" stroke-width="1.4" stroke-dasharray="5,2" d="M522,-475C522,-475 273,-475 273,-475 267,-475 261,-469 261,-463 261,-463 261,-374 261,-374 261,-368 267,-362 273,-362 273,-362 522,-362 522,-362 528,-362 534,-368 534,-374 534,-374 534,-463 534,-463 534,-469 528,-475 522,-475"/>
<text text-anchor="middle" x="397.5" y="-451.2" font-family="Helvetica,sans-Serif" font-size="16.00">Functional annotation &#160;(optional)</text>
<text text-anchor="middle" x="397.5" y="-414.2" font-family="Helvetica,sans-Serif" font-size="16.00">FANTASIA&#45;Lite</text>
<text text-anchor="middle" x="397.5" y="-396.2" font-family="Helvetica,sans-Serif" font-size="16.00">ProtT5 embeddings → GO terms</text>
<text text-anchor="middle" x="397.5" y="-378.2" font-family="Helvetica,sans-Serif" font-size="16.00">(GPU only)</text>
</g>
<!-- postprocess&#45;&gt;fantasia -->
<g id="edge11" class="edge">
<title>postprocess&#45;&gt;fantasia</title>
<path fill="none" stroke="#555555" stroke-width="1.4" stroke-dasharray="5,2" d="M741.91,-539.74C685.83,-522.34 615.4,-499.9 543.84,-475.08"/>
<polygon fill="#555555" stroke="#555555" stroke-width="1.4" points="544.79,-471.71 534.19,-471.72 542.49,-478.32 544.79,-471.71"/>
</g>
<!-- qc -->
<g id="node10" class="node">
<title>qc</title>
<path fill="#cfbae1" stroke="#333333" stroke-width="1.4" d="M806.5,-475C806.5,-475 564.5,-475 564.5,-475 558.5,-475 552.5,-469 552.5,-463 552.5,-463 552.5,-374 552.5,-374 552.5,-368 558.5,-362 564.5,-362 564.5,-362 806.5,-362 806.5,-362 812.5,-362 818.5,-368 818.5,-374 818.5,-374 818.5,-463 818.5,-463 818.5,-469 812.5,-475 806.5,-475"/>
<text text-anchor="middle" x="685.5" y="-451.2" font-family="Helvetica,sans-Serif" font-size="16.00">Quality control</text>
<text text-anchor="middle" x="685.5" y="-414.2" font-family="Helvetica,sans-Serif" font-size="16.00">compleasm + BUSCO (optional)</text>
<text text-anchor="middle" x="685.5" y="-396.2" font-family="Helvetica,sans-Serif" font-size="16.00">OMArk (optional)</text>
<text text-anchor="middle" x="685.5" y="-378.2" font-family="Helvetica,sans-Serif" font-size="16.00">gffcompare (optional)</text>
</g>
<!-- postprocess&#45;&gt;qc -->
<g id="edge12" class="edge">
<title>postprocess&#45;&gt;qc</title>
<path fill="none" stroke="#555555" stroke-width="1.4" d="M787.46,-515.76C775.87,-504.82 763.64,-493.27 751.82,-482.11"/>
<polygon fill="#555555" stroke="#555555" stroke-width="1.4" points="754.2,-479.55 744.53,-475.23 749.4,-484.64 754.2,-479.55"/>
</g>
<!-- out_genes -->
<g id="node11" class="node">
<title>out_genes</title>
<polygon fill="#f4cccc" stroke="#333333" stroke-width="1.5" points="956,-282 731,-282 731,-224 962,-224 962,-276 956,-282"/>
<polyline fill="none" stroke="#333333" stroke-width="1.5" points="956,-282 956,-276 "/>
<polyline fill="none" stroke="#333333" stroke-width="1.5" points="962,-276 956,-276 "/>
<text text-anchor="middle" x="846.5" y="-258.2" font-family="Helvetica,sans-Serif" font-size="16.00">galba.gtf · galba.gff3</text>
<text text-anchor="middle" x="846.5" y="-240.2" font-family="Helvetica,sans-Serif" font-size="16.00">galba.aa · galba.codingseq</text>
</g>
<!-- postprocess&#45;&gt;out_genes -->
<g id="edge13" class="edge">
<title>postprocess&#45;&gt;out_genes</title>
<path fill="none" stroke="#555555" stroke-width="1.4" d="M846.5,-515.83C846.5,-451.67 846.5,-347.94 846.5,-292.25"/>
<polygon fill="#555555" stroke="#555555" stroke-width="1.4" points="850,-292.11 846.5,-282.11 843,-292.11 850,-292.11"/>
</g>
<!-- out_ncrna -->
<g id="node12" class="node">
<title>out_ncrna</title>
<polygon fill="#f4cccc" stroke="#333333" stroke-width="1.5" stroke-dasharray="5,2" points="269,-273 70,-273 70,-233 275,-233 275,-267 269,-273"/>
<polyline fill="none" stroke="#333333" stroke-width="1.5" stroke-dasharray="5,2" points="269,-273 269,-267 "/>
<polyline fill="none" stroke="#333333" stroke-width="1.5" stroke-dasharray="5,2" points="275,-267 269,-267 "/>
<text text-anchor="middle" x="172.5" y="-249.2" font-family="Helvetica,sans-Serif" font-size="16.00">galba_with_ncRNA.gff3</text>
</g>
<!-- ncrna&#45;&gt;out_ncrna -->
<g id="edge14" class="edge">
<title>ncrna&#45;&gt;out_ncrna</title>
<path fill="none" stroke="#555555" stroke-width="1.4" stroke-dasharray="5,2" d="M136.11,-370.65C144.92,-342.41 155.86,-307.33 163.44,-283.06"/>
<polygon fill="#555555" stroke="#555555" stroke-width="1.4" points="166.82,-283.95 166.46,-273.37 160.14,-281.87 166.82,-283.95"/>
</g>
<!-- out_fantasia -->
<g id="node13" class="node">
<title>out_fantasia</title>
<polygon fill="#f4cccc" stroke="#333333" stroke-width="1.5" stroke-dasharray="5,2" points="482.5,-282 292.5,-282 292.5,-224 488.5,-224 488.5,-276 482.5,-282"/>
<polyline fill="none" stroke="#333333" stroke-width="1.5" stroke-dasharray="5,2" points="482.5,-282 482.5,-276 "/>
<polyline fill="none" stroke="#333333" stroke-width="1.5" stroke-dasharray="5,2" points="488.5,-276 482.5,-276 "/>
<text text-anchor="middle" x="390.5" y="-258.2" font-family="Helvetica,sans-Serif" font-size="16.00">galba.go.gff3</text>
<text text-anchor="middle" x="390.5" y="-240.2" font-family="Helvetica,sans-Serif" font-size="16.00">fantasia_go_terms.tsv</text>
</g>
<!-- fantasia&#45;&gt;out_fantasia -->
<g id="edge15" class="edge">
<title>fantasia&#45;&gt;out_fantasia</title>
<path fill="none" stroke="#555555" stroke-width="1.4" stroke-dasharray="5,2" d="M395.11,-361.69C394.13,-338.74 393.02,-312.75 392.13,-292.05"/>
<polygon fill="#555555" stroke="#555555" stroke-width="1.4" points="395.63,-291.89 391.7,-282.05 388.63,-292.19 395.63,-291.89"/>
</g>
<!-- out_report -->
<g id="node14" class="node">
<title>out_report</title>
<polygon fill="#f4cccc" stroke="#333333" stroke-width="1.5" points="706.5,-291 506.5,-291 506.5,-215 712.5,-215 712.5,-285 706.5,-291"/>
<polyline fill="none" stroke="#333333" stroke-width="1.5" points="706.5,-291 706.5,-285 "/>
<polyline fill="none" stroke="#333333" stroke-width="1.5" points="712.5,-285 706.5,-285 "/>
<text text-anchor="middle" x="609.5" y="-267.2" font-family="Helvetica,sans-Serif" font-size="16.00">HTML report</text>
<text text-anchor="middle" x="609.5" y="-249.2" font-family="Helvetica,sans-Serif" font-size="16.00">+ citations.bib</text>
<text text-anchor="middle" x="609.5" y="-231.2" font-family="Helvetica,sans-Serif" font-size="16.00">+ software_versions.tsv</text>
</g>
<!-- qc&#45;&gt;out_report -->
<g id="edge16" class="edge">
<title>qc&#45;&gt;out_report</title>
<path fill="none" stroke="#555555" stroke-width="1.4" d="M659.56,-361.69C650.25,-341.66 639.85,-319.3 630.96,-300.18"/>
<polygon fill="#555555" stroke="#555555" stroke-width="1.4" points="634.12,-298.66 626.73,-291.07 627.77,-301.62 634.12,-298.66"/>
</g>
<!-- leg_req -->
<g id="node15" class="node">
<title>leg_req</title>
<path fill="#ffffff" stroke="#333333" stroke-width="1.5" d="M755.5,-80.5C755.5,-80.5 655.5,-80.5 655.5,-80.5 649.5,-80.5 643.5,-74.5 643.5,-68.5 643.5,-68.5 643.5,-53.5 643.5,-53.5 643.5,-47.5 649.5,-41.5 655.5,-41.5 655.5,-41.5 755.5,-41.5 755.5,-41.5 761.5,-41.5 767.5,-47.5 767.5,-53.5 767.5,-53.5 767.5,-68.5 767.5,-68.5 767.5,-74.5 761.5,-80.5 755.5,-80.5"/>
<text text-anchor="middle" x="705.5" y="-57.5" font-family="Helvetica,sans-Serif" font-size="15.00">required step</text>
</g>
<!-- out_genes&#45;&gt;leg_req -->
<!-- leg_opt -->
<g id="node16" class="node">
<title>leg_opt</title>
<path fill="#ffffff" stroke="#333333" stroke-width="1.5" stroke-dasharray="5,2" d="M356,-89C356,-89 247,-89 247,-89 241,-89 235,-83 235,-77 235,-77 235,-45 235,-45 235,-39 241,-33 247,-33 247,-33 356,-33 356,-33 362,-33 368,-39 368,-45 368,-45 368,-77 368,-77 368,-83 362,-89 356,-89"/>
<text text-anchor="middle" x="301.5" y="-66" font-family="Helvetica,sans-Serif" font-size="15.00">optional step</text>
<text text-anchor="middle" x="301.5" y="-49" font-family="Helvetica,sans-Serif" font-size="15.00">(user enables)</text>
</g>
<!-- out_ncrna&#45;&gt;leg_opt -->
<!-- leg_in -->
<g id="node17" class="node">
<title>leg_in</title>
<path fill="#fdd9b4" stroke="#333333" stroke-width="1.5" d="M517.07,-100C517.07,-100 427.22,-100 427.22,-100 421.22,-100 413.11,-94.38 411,-88.77 411,-88.77 390.15,-33.23 390.15,-33.23 388.04,-27.62 391.93,-22 397.93,-22 397.93,-22 487.78,-22 487.78,-22 493.78,-22 501.89,-27.62 504,-33.23 504,-33.23 524.85,-88.77 524.85,-88.77 526.96,-94.38 523.07,-100 517.07,-100"/>
<text text-anchor="middle" x="457.5" y="-57.5" font-family="Helvetica,sans-Serif" font-size="15.00">input</text>
</g>
<!-- out_fantasia&#45;&gt;leg_in -->
<!-- leg_out -->
<g id="node18" class="node">
<title>leg_out</title>
<polygon fill="#f4cccc" stroke="#333333" stroke-width="1.5" points="620,-80.5 547,-80.5 547,-41.5 626,-41.5 626,-74.5 620,-80.5"/>
<polyline fill="none" stroke="#333333" stroke-width="1.5" points="620,-80.5 620,-74.5 "/>
<polyline fill="none" stroke="#333333" stroke-width="1.5" points="626,-74.5 620,-74.5 "/>
<text text-anchor="middle" x="586.5" y="-57.5" font-family="Helvetica,sans-Serif" font-size="15.00">output</text>
</g>
<!-- out_report&#45;&gt;leg_out -->
</g>
</svg>
