<?xml version="1.0" encoding="UTF-8" standalone="no"?>
<!DOCTYPE svg PUBLIC "-//W3C//DTD SVG 1.1//EN"
 "http://www.w3.org/Graphics/SVG/1.1/DTD/svg11.dtd">
<!-- Generated by graphviz version 2.43.0 (0)
 -->
<!-- Title: GALBA2 Pages: 1 -->
<svg width="1119pt" height="1515pt"
 viewBox="0.00 0.00 1119.10 1514.60" xmlns="http://www.w3.org/2000/svg" xmlns:xlink="http://www.w3.org/1999/xlink">
<g id="graph0" class="graph" transform="scale(1 1) rotate(0) translate(28.8 1485.8)">
<title>GALBA2</title>
<polygon fill="white" stroke="transparent" points="-28.8,28.8 -28.8,-1485.8 1090.3,-1485.8 1090.3,28.8 -28.8,28.8"/>
<g id="clust1" class="cluster">
<title>cluster_inputs</title>
<path fill="#fafafa" stroke="#888888" d="M669.5,-1305C669.5,-1305 1041.5,-1305 1041.5,-1305 1047.5,-1305 1053.5,-1311 1053.5,-1317 1053.5,-1317 1053.5,-1437 1053.5,-1437 1053.5,-1443 1047.5,-1449 1041.5,-1449 1041.5,-1449 669.5,-1449 669.5,-1449 663.5,-1449 657.5,-1443 657.5,-1437 657.5,-1437 657.5,-1317 657.5,-1317 657.5,-1311 663.5,-1305 669.5,-1305"/>
<text text-anchor="middle" x="855.5" y="-1430.6" font-family="Helvetica,sans-Serif" font-weight="bold" font-size="18.00">INPUTS</text>
</g>
<g id="clust3" class="cluster">
<title>cluster_outputs</title>
<path fill="#fafafa" stroke="#888888" d="M68.5,-201C68.5,-201 964.5,-201 964.5,-201 970.5,-201 976.5,-207 976.5,-213 976.5,-213 976.5,-321 976.5,-321 976.5,-327 970.5,-333 964.5,-333 964.5,-333 68.5,-333 68.5,-333 62.5,-333 56.5,-327 56.5,-321 56.5,-321 56.5,-213 56.5,-213 56.5,-207 62.5,-201 68.5,-201"/>
<text text-anchor="middle" x="516.5" y="-314.6" font-family="Helvetica,sans-Serif" font-weight="bold" font-size="18.00">OUTPUTS</text>
</g>
<g id="clust5" class="cluster">
<title>cluster_legend</title>
<path fill="#ffffff" stroke="#888888" d="M232.5,-8C232.5,-8 769.5,-8 769.5,-8 775.5,-8 781.5,-14 781.5,-20 781.5,-20 781.5,-130 781.5,-130 781.5,-136 775.5,-142 769.5,-142 769.5,-142 232.5,-142 232.5,-142 226.5,-142 220.5,-136 220.5,-130 220.5,-130 220.5,-20 220.5,-20 220.5,-14 226.5,-8 232.5,-8"/>
<text text-anchor="middle" x="501" y="-123.6" font-family="Helvetica,sans-Serif" font-weight="bold" font-size="18.00">LEGEND</text>
</g>
<!-- in_genome -->
<g id="node1" class="node">
<title>in_genome</title>
<path fill="#fdd9b4" stroke="#333333" stroke-width="1.5" d="M819.16,-1407C819.16,-1407 716.44,-1407 716.44,-1407 710.44,-1407 702.35,-1401.37 700.27,-1395.75 700.27,-1395.75 676.01,-1330.25 676.01,-1330.25 673.92,-1324.63 677.84,-1319 683.84,-1319 683.84,-1319 786.56,-1319 786.56,-1319 792.56,-1319 800.65,-1324.63 802.73,-1330.25 802.73,-1330.25 826.99,-1395.75 826.99,-1395.75 829.08,-1401.37 825.16,-1407 819.16,-1407"/>
<text text-anchor="middle" x="751.5" y="-1368.2" font-family="Helvetica,sans-Serif" font-size="16.00">Genome</text>
<text text-anchor="middle" x="751.5" y="-1350.2" font-family="Helvetica,sans-Serif" font-size="16.00">FASTA</text>
</g>
<!-- masking -->
<g id="node3" class="node">
<title>masking</title>
<path fill="#d9ead3" stroke="#333333" stroke-width="1.4" stroke-dasharray="5,2" d="M525.5,-1262C525.5,-1262 265.5,-1262 265.5,-1262 259.5,-1262 253.5,-1256 253.5,-1250 253.5,-1250 253.5,-1198 253.5,-1198 253.5,-1192 259.5,-1186 265.5,-1186 265.5,-1186 525.5,-1186 525.5,-1186 531.5,-1186 537.5,-1192 537.5,-1198 537.5,-1198 537.5,-1250 537.5,-1250 537.5,-1256 531.5,-1262 525.5,-1262"/>
<text text-anchor="middle" x="395.5" y="-1238.2" font-family="Helvetica,sans-Serif" font-size="16.00">Repeat masking</text>
<text text-anchor="middle" x="395.5" y="-1220.2" font-family="Helvetica,sans-Serif" font-size="16.00">(RepeatModeler2 + RepeatMasker</text>
<text text-anchor="middle" x="395.5" y="-1202.2" font-family="Helvetica,sans-Serif" font-size="16.00">or Red)</text>
</g>
<!-- in_genome&#45;&gt;masking -->
<g id="edge1" class="edge">
<title>in_genome&#45;&gt;masking</title>
<path fill="none" stroke="#555555" stroke-width="1.4" stroke-dasharray="5,2" d="M676.87,-1333.28C625.99,-1313.7 557.86,-1287.48 501.39,-1265.75"/>
<polygon fill="#555555" stroke="#555555" stroke-width="1.4" points="502.3,-1262.35 491.71,-1262.02 499.78,-1268.88 502.3,-1262.35"/>
<text text-anchor="middle" x="610.5" y="-1285.8" font-family="Helvetica,sans-Serif" font-size="14.00">if unmasked</text>
</g>
<!-- minisplice -->
<g id="node4" class="node">
<title>minisplice</title>
<path fill="#c9daf8" stroke="#333333" stroke-width="1.4" stroke-dasharray="5,2" d="M711.5,-1253C711.5,-1253 567.5,-1253 567.5,-1253 561.5,-1253 555.5,-1247 555.5,-1241 555.5,-1241 555.5,-1207 555.5,-1207 555.5,-1201 561.5,-1195 567.5,-1195 567.5,-1195 711.5,-1195 711.5,-1195 717.5,-1195 723.5,-1201 723.5,-1207 723.5,-1207 723.5,-1241 723.5,-1241 723.5,-1247 717.5,-1253 711.5,-1253"/>
<text text-anchor="middle" x="639.5" y="-1229.2" font-family="Helvetica,sans-Serif" font-size="16.00">Splice site scoring</text>
<text text-anchor="middle" x="639.5" y="-1211.2" font-family="Helvetica,sans-Serif" font-size="16.00">(minisplice CNN)</text>
</g>
<!-- in_genome&#45;&gt;minisplice -->
<g id="edge2" class="edge">
<title>in_genome&#45;&gt;minisplice</title>
<path fill="none" stroke="#555555" stroke-width="1.4" stroke-dasharray="5,2" d="M716.06,-1318.65C700.95,-1300.16 683.51,-1278.83 669.1,-1261.2"/>
<polygon fill="#555555" stroke="#555555" stroke-width="1.4" points="671.75,-1258.91 662.71,-1253.39 666.33,-1263.34 671.75,-1258.91"/>
</g>
<!-- miniprot -->
<g id="node5" class="node">
<title>miniprot</title>
<path fill="#c9daf8" stroke="#333333" stroke-width="1.6" d="M852,-1116C852,-1116 651,-1116 651,-1116 645,-1116 639,-1110 639,-1104 639,-1104 639,-1015 639,-1015 639,-1009 645,-1003 651,-1003 651,-1003 852,-1003 852,-1003 858,-1003 864,-1009 864,-1015 864,-1015 864,-1104 864,-1104 864,-1110 858,-1116 852,-1116"/>
<text text-anchor="middle" x="751.5" y="-1092.2" font-family="Helvetica,sans-Serif" font-size="16.00">Protein alignment</text>
<text text-anchor="middle" x="751.5" y="-1074.2" font-family="Helvetica,sans-Serif" font-size="16.00">(miniprot)</text>
<text text-anchor="middle" x="751.5" y="-1037.2" font-family="Helvetica,sans-Serif" font-size="16.00">miniprot · boundary scorer</text>
<text text-anchor="middle" x="751.5" y="-1019.2" font-family="Helvetica,sans-Serif" font-size="16.00">miniprothint</text>
</g>
<!-- in_genome&#45;&gt;miniprot -->
<g id="edge3" class="edge">
<title>in_genome&#45;&gt;miniprot</title>
<path fill="none" stroke="#555555" stroke-width="1.4" d="M751.5,-1318.8C751.5,-1268.5 751.5,-1184.85 751.5,-1126.42"/>
<polygon fill="#555555" stroke="#555555" stroke-width="1.4" points="755,-1126.18 751.5,-1116.18 748,-1126.18 755,-1126.18"/>
</g>
<!-- in_proteins -->
<g id="node2" class="node">
<title>in_proteins</title>
<path fill="#fdd9b4" stroke="#333333" stroke-width="1.5" d="M1027.76,-1407C1027.76,-1407 900.22,-1407 900.22,-1407 894.22,-1407 885.79,-1401.51 883.36,-1396.03 883.36,-1396.03 854.1,-1329.97 854.1,-1329.97 851.67,-1324.49 855.24,-1319 861.24,-1319 861.24,-1319 988.78,-1319 988.78,-1319 994.78,-1319 1003.21,-1324.49 1005.64,-1329.97 1005.64,-1329.97 1034.9,-1396.03 1034.9,-1396.03 1037.33,-1401.51 1033.76,-1407 1027.76,-1407"/>
<text text-anchor="middle" x="944.5" y="-1368.2" font-family="Helvetica,sans-Serif" font-size="16.00">Protein DB</text>
<text text-anchor="middle" x="944.5" y="-1350.2" font-family="Helvetica,sans-Serif" font-size="16.00">FASTA</text>
</g>
<!-- in_proteins&#45;&gt;miniprot -->
<g id="edge6" class="edge">
<title>in_proteins&#45;&gt;miniprot</title>
<path fill="none" stroke="#555555" stroke-width="1.4" d="M916.85,-1318.8C884.31,-1267.98 829.99,-1183.12 792.54,-1124.61"/>
<polygon fill="#555555" stroke="#555555" stroke-width="1.4" points="795.48,-1122.71 787.14,-1116.18 789.58,-1126.49 795.48,-1122.71"/>
</g>
<!-- postprocess -->
<g id="node8" class="node">
<title>postprocess</title>
<path fill="#d0e0e3" stroke="#333333" stroke-width="1.6" d="M939,-629C939,-629 754,-629 754,-629 748,-629 742,-623 742,-617 742,-617 742,-528 742,-528 742,-522 748,-516 754,-516 754,-516 939,-516 939,-516 945,-516 951,-522 951,-528 951,-528 951,-617 951,-617 951,-623 945,-629 939,-629"/>
<text text-anchor="middle" x="846.5" y="-605.2" font-family="Helvetica,sans-Serif" font-size="16.00">Postprocessing</text>
<text text-anchor="middle" x="846.5" y="-568.2" font-family="Helvetica,sans-Serif" font-size="16.00">fix in&#45;frame stop codons</text>
<text text-anchor="middle" x="846.5" y="-550.2" font-family="Helvetica,sans-Serif" font-size="16.00">filter · normalize CDS</text>
<text text-anchor="middle" x="846.5" y="-532.2" font-family="Helvetica,sans-Serif" font-size="16.00">DIAMOND filter · GFF3</text>
</g>
<!-- in_proteins&#45;&gt;postprocess -->
<g id="edge11" class="edge">
<title>in_proteins&#45;&gt;postprocess</title>
<path fill="none" stroke="#555555" stroke-width="1.4" stroke-dasharray="5,2" d="M958.41,-1318.99C965.85,-1292.24 973.5,-1256.97 973.5,-1225 973.5,-1225 973.5,-1225 973.5,-725.5 973.5,-691.53 954.59,-661.15 931.37,-636.64"/>
<polygon fill="#555555" stroke="#555555" stroke-width="1.4" points="933.55,-633.87 924.03,-629.22 928.58,-638.79 933.55,-633.87"/>
<text text-anchor="middle" x="1006.5" y="-971.8" font-family="Helvetica,sans-Serif" font-size="14.00">DIAMOND</text>
<text text-anchor="middle" x="1006.5" y="-956.8" font-family="Helvetica,sans-Serif" font-size="14.00">filter</text>
</g>
<!-- masking&#45;&gt;miniprot -->
<g id="edge4" class="edge">
<title>masking&#45;&gt;miniprot</title>
<path fill="none" stroke="#555555" stroke-width="1.4" stroke-dasharray="5,2" d="M476.73,-1185.92C521.93,-1165.29 579.11,-1139.19 629.58,-1116.15"/>
<polygon fill="#555555" stroke="#555555" stroke-width="1.4" points="631.27,-1119.23 638.92,-1111.89 628.37,-1112.86 631.27,-1119.23"/>
</g>
<!-- minisplice&#45;&gt;miniprot -->
<g id="edge5" class="edge">
<title>minisplice&#45;&gt;miniprot</title>
<path fill="none" stroke="#555555" stroke-width="1.4" stroke-dasharray="5,2" d="M658.07,-1194.63C669.34,-1177.55 684.09,-1155.42 697.5,-1136 700.16,-1132.14 702.92,-1128.19 705.71,-1124.2"/>
<polygon fill="#555555" stroke="#555555" stroke-width="1.4" points="708.58,-1126.21 711.48,-1116.02 702.86,-1122.18 708.58,-1126.21"/>
<text text-anchor="middle" x="717.5" y="-1154.8" font-family="Helvetica,sans-Serif" font-size="14.00">splice</text>
<text text-anchor="middle" x="717.5" y="-1139.8" font-family="Helvetica,sans-Serif" font-size="14.00">scores</text>
</g>
<!-- hints -->
<g id="node6" class="node">
<title>hints</title>
<path fill="#c9daf8" stroke="#333333" stroke-width="1.5" d="M852,-933C852,-933 651,-933 651,-933 645,-933 639,-927 639,-921 639,-921 639,-850 639,-850 639,-844 645,-838 651,-838 651,-838 852,-838 852,-838 858,-838 864,-844 864,-850 864,-850 864,-921 864,-921 864,-927 858,-933 852,-933"/>
<text text-anchor="middle" x="751.5" y="-909.2" font-family="Helvetica,sans-Serif" font-size="16.00">Protein&#45;derived hints</text>
<text text-anchor="middle" x="751.5" y="-872.2" font-family="Helvetica,sans-Serif" font-size="16.00">CDSpart (training genes)</text>
<text text-anchor="middle" x="751.5" y="-854.2" font-family="Helvetica,sans-Serif" font-size="16.00">HC chains · LC multiplicity</text>
</g>
<!-- miniprot&#45;&gt;hints -->
<g id="edge7" class="edge">
<title>miniprot&#45;&gt;hints</title>
<path fill="none" stroke="#555555" stroke-width="1.4" d="M751.5,-1002.66C751.5,-983.62 751.5,-962.32 751.5,-943.21"/>
<polygon fill="#555555" stroke="#555555" stroke-width="1.4" points="755,-943.14 751.5,-933.14 748,-943.14 755,-943.14"/>
<text text-anchor="middle" x="766" y="-964.3" font-family="Helvetica,sans-Serif" font-size="14.00">hints</text>
</g>
<!-- augustus -->
<g id="node7" class="node">
<title>augustus</title>
<path fill="#fff2cc" stroke="#333333" stroke-width="1.6" d="M933,-783C933,-783 760,-783 760,-783 754,-783 748,-777 748,-771 748,-771 748,-682 748,-682 748,-676 754,-670 760,-670 760,-670 933,-670 933,-670 939,-670 945,-676 945,-682 945,-682 945,-771 945,-771 945,-777 939,-783 933,-783"/>
<text text-anchor="middle" x="846.5" y="-759.2" font-family="Helvetica,sans-Serif" font-size="16.00">AUGUSTUS</text>
<text text-anchor="middle" x="846.5" y="-741.2" font-family="Helvetica,sans-Serif" font-size="16.00">training + prediction</text>
<text text-anchor="middle" x="846.5" y="-704.2" font-family="Helvetica,sans-Serif" font-size="16.00">(etraining · optimize ·</text>
<text text-anchor="middle" x="846.5" y="-686.2" font-family="Helvetica,sans-Serif" font-size="16.00">hint&#45;guided prediction)</text>
</g>
<!-- miniprot&#45;&gt;augustus -->
<g id="edge8" class="edge">
<title>miniprot&#45;&gt;augustus</title>
<path fill="none" stroke="#555555" stroke-width="1.4" d="M823.65,-1002.82C843.66,-983.16 862.81,-959.32 873.5,-933 891.61,-888.4 883.42,-834.29 871.47,-792.8"/>
<polygon fill="#555555" stroke="#555555" stroke-width="1.4" points="874.77,-791.64 868.53,-783.07 868.07,-793.66 874.77,-791.64"/>
<text text-anchor="middle" x="906" y="-889.3" font-family="Helvetica,sans-Serif" font-size="14.00">training</text>
<text text-anchor="middle" x="906" y="-874.3" font-family="Helvetica,sans-Serif" font-size="14.00">genes</text>
</g>
<!-- hints&#45;&gt;augustus -->
<g id="edge9" class="edge">
<title>hints&#45;&gt;augustus</title>
<path fill="none" stroke="#555555" stroke-width="1.4" stroke-dasharray="5,2" d="M779.75,-837.82C788.43,-823.46 798.15,-807.4 807.43,-792.07"/>
<polygon fill="#555555" stroke="#555555" stroke-width="1.4" points="810.65,-793.51 812.83,-783.14 804.66,-789.88 810.65,-793.51"/>
<text text-anchor="middle" x="821.5" y="-806.8" font-family="Helvetica,sans-Serif" font-size="14.00">hintsfile</text>
</g>
<!-- augustus&#45;&gt;postprocess -->
<g id="edge10" class="edge">
<title>augustus&#45;&gt;postprocess</title>
<path fill="none" stroke="#555555" stroke-width="1.4" d="M846.5,-669.76C846.5,-659.85 846.5,-649.44 846.5,-639.28"/>
<polygon fill="#555555" stroke="#555555" stroke-width="1.4" points="850,-639.23 846.5,-629.23 843,-639.23 850,-639.23"/>
</g>
<!-- ncrna -->
<g id="node9" class="node">
<title>ncrna</title>
<path fill="#e6d5f0" stroke="#333333" stroke-width="1.4" stroke-dasharray="5,2" d="M231,-466C231,-466 12,-466 12,-466 6,-466 0,-460 0,-454 0,-454 0,-383 0,-383 0,-377 6,-371 12,-371 12,-371 231,-371 231,-371 237,-371 243,-377 243,-383 243,-383 243,-454 243,-454 243,-460 237,-466 231,-466"/>
<text text-anchor="middle" x="121.5" y="-442.2" font-family="Helvetica,sans-Serif" font-size="16.00">ncRNA annotation &#160;(optional)</text>
<text text-anchor="middle" x="121.5" y="-405.2" font-family="Helvetica,sans-Serif" font-size="16.00">barrnap · tRNAscan&#45;SE</text>
<text text-anchor="middle" x="121.5" y="-387.2" font-family="Helvetica,sans-Serif" font-size="16.00">Infernal + Rfam</text>
</g>
<!-- postprocess&#45;&gt;ncrna -->
<g id="edge12" class="edge">
<title>postprocess&#45;&gt;ncrna</title>
<path fill="none" stroke="#555555" stroke-width="1.4" stroke-dasharray="5,2" d="M741.89,-562.29C621.72,-549.94 419.48,-523.69 251.5,-475 245.76,-473.34 239.94,-471.49 234.1,-469.5"/>
<polygon fill="#555555" stroke="#555555" stroke-width="1.4" points="234.87,-466.06 224.27,-466.05 232.54,-472.67 234.87,-466.06"/>
</g>
<!-- fantasia -->
<g id="node10" class="node">
<title>fantasia</title>
<path fill="#a2c4c9" stroke="#333333" stroke-width="1.4" stroke-dasharray="5,2" d="M522,-475C522,-475 273,-475 273,-475 267,-475 261,-469 261,-463 261,-463 261,-374 261,-374 261,-368 267,-362 273,-362 273,-362 522,-362 522,-362 528,-362 534,-368 534,-374 534,-374 534,-463 534,-463 534,-469 528,-475 522,-475"/>
<text text-anchor="middle" x="397.5" y="-451.2" font-family="Helvetica,sans-Serif" font-size="16.00">Functional annotation &#160;(optional)</text>
<text text-anchor="middle" x="397.5" y="-414.2" font-family="Helvetica,sans-Serif" font-size="16.00">FANTASIA&#45;Lite</text>
<text text-anchor="middle" x="397.5" y="-396.2" font-family="Helvetica,sans-Serif" font-size="16.00">ProtT5 embeddings → GO terms</text>
<text text-anchor="middle" x="397.5" y="-378.2" font-family="Helvetica,sans-Serif" font-size="16.00">(GPU only)</text>
</g>
<!-- postprocess&#45;&gt;fantasia -->
<g id="edge13" class="edge">
<title>postprocess&#45;&gt;fantasia</title>
<path fill="none" stroke="#555555" stroke-width="1.4" stroke-dasharray="5,2" d="M741.91,-539.74C685.83,-522.34 615.4,-499.9 543.84,-475.08"/>
<polygon fill="#555555" stroke="#555555" stroke-width="1.4" points="544.79,-471.71 534.19,-471.72 542.49,-478.32 544.79,-471.71"/>
</g>
<!-- qc -->
<g id="node11" class="node">
<title>qc</title>
<path fill="#cfbae1" stroke="#333333" stroke-width="1.4" d="M806.5,-475C806.5,-475 564.5,-475 564.5,-475 558.5,-475 552.5,-469 552.5,-463 552.5,-463 552.5,-374 552.5,-374 552.5,-368 558.5,-362 564.5,-362 564.5,-362 806.5,-362 806.5,-362 812.5,-362 818.5,-368 818.5,-374 818.5,-374 818.5,-463 818.5,-463 818.5,-469 812.5,-475 806.5,-475"/>
<text text-anchor="middle" x="685.5" y="-451.2" font-family="Helvetica,sans-Serif" font-size="16.00">Quality control</text>
<text text-anchor="middle" x="685.5" y="-414.2" font-family="Helvetica,sans-Serif" font-size="16.00">compleasm + BUSCO (optional)</text>
<text text-anchor="middle" x="685.5" y="-396.2" font-family="Helvetica,sans-Serif" font-size="16.00">OMArk (optional)</text>
<text text-anchor="middle" x="685.5" y="-378.2" font-family="Helvetica,sans-Serif" font-size="16.00">gffcompare (optional)</text>
</g>
<!-- postprocess&#45;&gt;qc -->
<g id="edge14" class="edge">
<title>postprocess&#45;&gt;qc</title>
<path fill="none" stroke="#555555" stroke-width="1.4" d="M787.46,-515.76C775.87,-504.82 763.64,-493.27 751.82,-482.11"/>
<polygon fill="#555555" stroke="#555555" stroke-width="1.4" points="754.2,-479.55 744.53,-475.23 749.4,-484.64 754.2,-479.55"/>
</g>
<!-- out_genes -->
<g id="node12" class="node">
<title>out_genes</title>
<polygon fill="#f4cccc" stroke="#333333" stroke-width="1.5" points="956,-282 731,-282 731,-224 962,-224 962,-276 956,-282"/>
<polyline fill="none" stroke="#333333" stroke-width="1.5" points="956,-282 956,-276 "/>
<polyline fill="none" stroke="#333333" stroke-width="1.5" points="962,-276 956,-276 "/>
<text text-anchor="middle" x="846.5" y="-258.2" font-family="Helvetica,sans-Serif" font-size="16.00">galba.gtf · galba.gff3</text>
<text text-anchor="middle" x="846.5" y="-240.2" font-family="Helvetica,sans-Serif" font-size="16.00">galba.aa · galba.codingseq</text>
</g>
<!-- postprocess&#45;&gt;out_genes -->
<g id="edge15" class="edge">
<title>postprocess&#45;&gt;out_genes</title>
<path fill="none" stroke="#555555" stroke-width="1.4" d="M846.5,-515.83C846.5,-451.67 846.5,-347.94 846.5,-292.25"/>
<polygon fill="#555555" stroke="#555555" stroke-width="1.4" points="850,-292.11 846.5,-282.11 843,-292.11 850,-292.11"/>
</g>
<!-- out_ncrna -->
<g id="node13" class="node">
<title>out_ncrna</title>
<polygon fill="#f4cccc" stroke="#333333" stroke-width="1.5" stroke-dasharray="5,2" points="269,-273 70,-273 70,-233 275,-233 275,-267 269,-273"/>
<polyline fill="none" stroke="#333333" stroke-width="1.5" stroke-dasharray="5,2" points="269,-273 269,-267 "/>
<polyline fill="none" stroke="#333333" stroke-width="1.5" stroke-dasharray="5,2" points="275,-267 269,-267 "/>
<text text-anchor="middle" x="172.5" y="-249.2" font-family="Helvetica,sans-Serif" font-size="16.00">galba_with_ncRNA.gff3</text>
</g>
<!-- ncrna&#45;&gt;out_ncrna -->
<g id="edge16" class="edge">
<title>ncrna&#45;&gt;out_ncrna</title>
<path fill="none" stroke="#555555" stroke-width="1.4" stroke-dasharray="5,2" d="M136.11,-370.65C144.92,-342.41 155.86,-307.33 163.44,-283.06"/>
<polygon fill="#555555" stroke="#555555" stroke-width="1.4" points="166.82,-283.95 166.46,-273.37 160.14,-281.87 166.82,-283.95"/>
</g>
<!-- out_fantasia -->
<g id="node14" class="node">
<title>out_fantasia</title>
<polygon fill="#f4cccc" stroke="#333333" stroke-width="1.5" stroke-dasharray="5,2" points="482.5,-282 292.5,-282 292.5,-224 488.5,-224 488.5,-276 482.5,-282"/>
<polyline fill="none" stroke="#333333" stroke-width="1.5" stroke-dasharray="5,2" points="482.5,-282 482.5,-276 "/>
<polyline fill="none" stroke="#333333" stroke-width="1.5" stroke-dasharray="5,2" points="488.5,-276 482.5,-276 "/>
<text text-anchor="middle" x="390.5" y="-258.2" font-family="Helvetica,sans-Serif" font-size="16.00">galba.go.gff3</text>
<text text-anchor="middle" x="390.5" y="-240.2" font-family="Helvetica,sans-Serif" font-size="16.00">fantasia_go_terms.tsv</text>
</g>
<!-- fantasia&#45;&gt;out_fantasia -->
<g id="edge17" class="edge">
<title>fantasia&#45;&gt;out_fantasia</title>
<path fill="none" stroke="#555555" stroke-width="1.4" stroke-dasharray="5,2" d="M395.11,-361.69C394.13,-338.74 393.02,-312.75 392.13,-292.05"/>
<polygon fill="#555555" stroke="#555555" stroke-width="1.4" points="395.63,-291.89 391.7,-282.05 388.63,-292.19 395.63,-291.89"/>
</g>
<!-- out_report -->
<g id="node15" class="node">
<title>out_report</title>
<polygon fill="#f4cccc" stroke="#333333" stroke-width="1.5" points="706.5,-291 506.5,-291 506.5,-215 712.5,-215 712.5,-285 706.5,-291"/>
<polyline fill="none" stroke="#333333" stroke-width="1.5" points="706.5,-291 706.5,-285 "/>
<polyline fill="none" stroke="#333333" stroke-width="1.5" points="712.5,-285 706.5,-285 "/>
<text text-anchor="middle" x="609.5" y="-267.2" font-family="Helvetica,sans-Serif" font-size="16.00">HTML report</text>
<text text-anchor="middle" x="609.5" y="-249.2" font-family="Helvetica,sans-Serif" font-size="16.00">+ citations.bib</text>
<text text-anchor="middle" x="609.5" y="-231.2" font-family="Helvetica,sans-Serif" font-size="16.00">+ software_versions.tsv</text>
</g>
<!-- qc&#45;&gt;out_report -->
<g id="edge18" class="edge">
<title>qc&#45;&gt;out_report</title>
<path fill="none" stroke="#555555" stroke-width="1.4" d="M659.56,-361.69C650.25,-341.66 639.85,-319.3 630.96,-300.18"/>
<polygon fill="#555555" stroke="#555555" stroke-width="1.4" points="634.12,-298.66 626.73,-291.07 627.77,-301.62 634.12,-298.66"/>
</g>
<!-- leg_req -->
<g id="node16" class="node">
<title>leg_req</title>
<path fill="#ffffff" stroke="#333333" stroke-width="1.5" d="M755.5,-80.5C755.5,-80.5 655.5,-80.5 655.5,-80.5 649.5,-80.5 643.5,-74.5 643.5,-68.5 643.5,-68.5 643.5,-53.5 643.5,-53.5 643.5,-47.5 649.5,-41.5 655.5,-41.5 655.5,-41.5 755.5,-41.5 755.5,-41.5 761.5,-41.5 767.5,-47.5 767.5,-53.5 767.5,-53.5 767.5,-68.5 767.5,-68.5 767.5,-74.5 761.5,-80.5 755.5,-80.5"/>
<text text-anchor="middle" x="705.5" y="-57.5" font-family="Helvetica,sans-Serif" font-size="15.00">required step</text>
</g>
<!-- out_genes&#45;&gt;leg_req -->
<!-- leg_opt -->
<g id="node17" class="node">
<title>leg_opt</title>
<path fill="#ffffff" stroke="#333333" stroke-width="1.5" stroke-dasharray="5,2" d="M356,-89C356,-89 247,-89 247,-89 241,-89 235,-83 235,-77 235,-77 235,-45 235,-45 235,-39 241,-33 247,-33 247,-33 356,-33 356,-33 362,-33 368,-39 368,-45 368,-45 368,-77 368,-77 368,-83 362,-89 356,-89"/>
<text text-anchor="middle" x="301.5" y="-66" font-family="Helvetica,sans-Serif" font-size="15.00">optional step</text>
<text text-anchor="middle" x="301.5" y="-49" font-family="Helvetica,sans-Serif" font-size="15.00">(user enables)</text>
</g>
<!-- out_ncrna&#45;&gt;leg_opt -->
<!-- leg_in -->
<g id="node18" class="node">
<title>leg_in</title>
<path fill="#fdd9b4" stroke="#333333" stroke-width="1.5" d="M517.07,-100C517.07,-100 427.22,-100 427.22,-100 421.22,-100 413.11,-94.38 411,-88.77 411,-88.77 390.15,-33.23 390.15,-33.23 388.04,-27.62 391.93,-22 397.93,-22 397.93,-22 487.78,-22 487.78,-22 493.78,-22 501.89,-27.62 504,-33.23 504,-33.23 524.85,-88.77 524.85,-88.77 526.96,-94.38 523.07,-100 517.07,-100"/>
<text text-anchor="middle" x="457.5" y="-57.5" font-family="Helvetica,sans-Serif" font-size="15.00">input</text>
</g>
<!-- out_fantasia&#45;&gt;leg_in -->
<!-- leg_out -->
<g id="node19" class="node">
<title>leg_out</title>
<polygon fill="#f4cccc" stroke="#333333" stroke-width="1.5" points="620,-80.5 547,-80.5 547,-41.5 626,-41.5 626,-74.5 620,-80.5"/>
<polyline fill="none" stroke="#333333" stroke-width="1.5" points="620,-80.5 620,-74.5 "/>
<polyline fill="none" stroke="#333333" stroke-width="1.5" points="626,-74.5 620,-74.5 "/>
<text text-anchor="middle" x="586.5" y="-57.5" font-family="Helvetica,sans-Serif" font-size="15.00">output</text>
</g>
<!-- out_report&#45;&gt;leg_out -->
</g>
</svg>
