<?xml version="1.0" encoding="UTF-8" standalone="no"?>
<!DOCTYPE svg PUBLIC "-//W3C//DTD SVG 1.1//EN"
 "http://www.w3.org/Graphics/SVG/1.1/DTD/svg11.dtd">
<!-- Generated by graphviz version 2.43.0 (0)
 -->
<!-- Title: GALBA2 Pages: 1 -->
<svg width="676pt" height="1340pt"
 viewBox="0.00 0.00 676.10 1339.60" xmlns="http://www.w3.org/2000/svg" xmlns:xlink="http://www.w3.org/1999/xlink">
<g id="graph0" class="graph" transform="scale(1 1) rotate(0) translate(28.8 1310.8)">
<title>GALBA2</title>
<polygon fill="white" stroke="transparent" points="-28.8,28.8 -28.8,-1310.8 647.3,-1310.8 647.3,28.8 -28.8,28.8"/>
<g id="clust1" class="cluster">
<title>cluster_inputs</title>
<path fill="#fafafa" stroke="#888888" d="M30.5,-1130C30.5,-1130 402.5,-1130 402.5,-1130 408.5,-1130 414.5,-1136 414.5,-1142 414.5,-1142 414.5,-1262 414.5,-1262 414.5,-1268 408.5,-1274 402.5,-1274 402.5,-1274 30.5,-1274 30.5,-1274 24.5,-1274 18.5,-1268 18.5,-1262 18.5,-1262 18.5,-1142 18.5,-1142 18.5,-1136 24.5,-1130 30.5,-1130"/>
<text text-anchor="middle" x="216.5" y="-1255.6" font-family="Helvetica,sans-Serif" font-weight="bold" font-size="18.00">INPUTS</text>
</g>
<g id="clust3" class="cluster">
<title>cluster_outputs</title>
<path fill="#fafafa" stroke="#888888" d="M97.5,-201C97.5,-201 557.5,-201 557.5,-201 563.5,-201 569.5,-207 569.5,-213 569.5,-213 569.5,-321 569.5,-321 569.5,-327 563.5,-333 557.5,-333 557.5,-333 97.5,-333 97.5,-333 91.5,-333 85.5,-327 85.5,-321 85.5,-321 85.5,-213 85.5,-213 85.5,-207 91.5,-201 97.5,-201"/>
<text text-anchor="middle" x="327.5" y="-314.6" font-family="Helvetica,sans-Serif" font-weight="bold" font-size="18.00">OUTPUTS</text>
</g>
<g id="clust5" class="cluster">
<title>cluster_legend</title>
<path fill="#ffffff" stroke="#888888" d="M61.5,-8C61.5,-8 598.5,-8 598.5,-8 604.5,-8 610.5,-14 610.5,-20 610.5,-20 610.5,-130 610.5,-130 610.5,-136 604.5,-142 598.5,-142 598.5,-142 61.5,-142 61.5,-142 55.5,-142 49.5,-136 49.5,-130 49.5,-130 49.5,-20 49.5,-20 49.5,-14 55.5,-8 61.5,-8"/>
<text text-anchor="middle" x="330" y="-123.6" font-family="Helvetica,sans-Serif" font-weight="bold" font-size="18.00">LEGEND</text>
</g>
<!-- in_genome -->
<g id="node1" class="node">
<title>in_genome</title>
<path fill="#fdd9b4" stroke="#333333" stroke-width="1.5" d="M180.16,-1232C180.16,-1232 77.44,-1232 77.44,-1232 71.44,-1232 63.35,-1226.37 61.27,-1220.75 61.27,-1220.75 37.01,-1155.25 37.01,-1155.25 34.92,-1149.63 38.84,-1144 44.84,-1144 44.84,-1144 147.56,-1144 147.56,-1144 153.56,-1144 161.65,-1149.63 163.73,-1155.25 163.73,-1155.25 187.99,-1220.75 187.99,-1220.75 190.08,-1226.37 186.16,-1232 180.16,-1232"/>
<text text-anchor="middle" x="112.5" y="-1193.2" font-family="Helvetica,sans-Serif" font-size="16.00">Genome</text>
<text text-anchor="middle" x="112.5" y="-1175.2" font-family="Helvetica,sans-Serif" font-size="16.00">FASTA</text>
</g>
<!-- miniprot -->
<g id="node3" class="node">
<title>miniprot</title>
<path fill="#c9daf8" stroke="#333333" stroke-width="1.6" d="M213,-1101C213,-1101 12,-1101 12,-1101 6,-1101 0,-1095 0,-1089 0,-1089 0,-1000 0,-1000 0,-994 6,-988 12,-988 12,-988 213,-988 213,-988 219,-988 225,-994 225,-1000 225,-1000 225,-1089 225,-1089 225,-1095 219,-1101 213,-1101"/>
<text text-anchor="middle" x="112.5" y="-1077.2" font-family="Helvetica,sans-Serif" font-size="16.00">Protein alignment</text>
<text text-anchor="middle" x="112.5" y="-1059.2" font-family="Helvetica,sans-Serif" font-size="16.00">(miniprot)</text>
<text text-anchor="middle" x="112.5" y="-1022.2" font-family="Helvetica,sans-Serif" font-size="16.00">miniprot · boundary scorer</text>
<text text-anchor="middle" x="112.5" y="-1004.2" font-family="Helvetica,sans-Serif" font-size="16.00">miniprothint</text>
</g>
<!-- in_genome&#45;&gt;miniprot -->
<g id="edge1" class="edge">
<title>in_genome&#45;&gt;miniprot</title>
<path fill="none" stroke="#555555" stroke-width="1.4" d="M112.5,-1143.78C112.5,-1133.51 112.5,-1122.33 112.5,-1111.3"/>
<polygon fill="#555555" stroke="#555555" stroke-width="1.4" points="116,-1111.26 112.5,-1101.26 109,-1111.26 116,-1111.26"/>
</g>
<!-- in_proteins -->
<g id="node2" class="node">
<title>in_proteins</title>
<path fill="#fdd9b4" stroke="#333333" stroke-width="1.5" d="M388.76,-1232C388.76,-1232 261.22,-1232 261.22,-1232 255.22,-1232 246.79,-1226.51 244.36,-1221.03 244.36,-1221.03 215.1,-1154.97 215.1,-1154.97 212.67,-1149.49 216.24,-1144 222.24,-1144 222.24,-1144 349.78,-1144 349.78,-1144 355.78,-1144 364.21,-1149.49 366.64,-1154.97 366.64,-1154.97 395.9,-1221.03 395.9,-1221.03 398.33,-1226.51 394.76,-1232 388.76,-1232"/>
<text text-anchor="middle" x="305.5" y="-1193.2" font-family="Helvetica,sans-Serif" font-size="16.00">Protein DB</text>
<text text-anchor="middle" x="305.5" y="-1175.2" font-family="Helvetica,sans-Serif" font-size="16.00">FASTA</text>
</g>
<!-- in_proteins&#45;&gt;miniprot -->
<g id="edge2" class="edge">
<title>in_proteins&#45;&gt;miniprot</title>
<path fill="none" stroke="#555555" stroke-width="1.4" d="M246.81,-1143.97C230.99,-1132.37 213.56,-1119.59 196.64,-1107.19"/>
<polygon fill="#555555" stroke="#555555" stroke-width="1.4" points="198.52,-1104.23 188.39,-1101.14 194.38,-1109.87 198.52,-1104.23"/>
</g>
<!-- postprocess -->
<g id="node6" class="node">
<title>postprocess</title>
<path fill="#d0e0e3" stroke="#333333" stroke-width="1.6" d="M308,-629C308,-629 123,-629 123,-629 117,-629 111,-623 111,-617 111,-617 111,-528 111,-528 111,-522 117,-516 123,-516 123,-516 308,-516 308,-516 314,-516 320,-522 320,-528 320,-528 320,-617 320,-617 320,-623 314,-629 308,-629"/>
<text text-anchor="middle" x="215.5" y="-605.2" font-family="Helvetica,sans-Serif" font-size="16.00">Postprocessing</text>
<text text-anchor="middle" x="215.5" y="-568.2" font-family="Helvetica,sans-Serif" font-size="16.00">fix in&#45;frame stop codons</text>
<text text-anchor="middle" x="215.5" y="-550.2" font-family="Helvetica,sans-Serif" font-size="16.00">filter · normalize CDS</text>
<text text-anchor="middle" x="215.5" y="-532.2" font-family="Helvetica,sans-Serif" font-size="16.00">DIAMOND filter · GFF3</text>
</g>
<!-- in_proteins&#45;&gt;postprocess -->
<g id="edge7" class="edge">
<title>in_proteins&#45;&gt;postprocess</title>
<path fill="none" stroke="#555555" stroke-width="1.4" stroke-dasharray="5,2" d="M322.92,-1143.78C332.51,-1116.14 342.5,-1079.27 342.5,-1045.5 342.5,-1045.5 342.5,-1045.5 342.5,-725.5 342.5,-691.53 323.59,-661.15 300.37,-636.64"/>
<polygon fill="#555555" stroke="#555555" stroke-width="1.4" points="302.55,-633.87 293.03,-629.22 297.58,-638.79 302.55,-633.87"/>
<text text-anchor="middle" x="375.5" y="-889.3" font-family="Helvetica,sans-Serif" font-size="14.00">DIAMOND</text>
<text text-anchor="middle" x="375.5" y="-874.3" font-family="Helvetica,sans-Serif" font-size="14.00">filter</text>
</g>
<!-- hints -->
<g id="node4" class="node">
<title>hints</title>
<path fill="#c9daf8" stroke="#333333" stroke-width="1.5" d="M213,-933C213,-933 12,-933 12,-933 6,-933 0,-927 0,-921 0,-921 0,-850 0,-850 0,-844 6,-838 12,-838 12,-838 213,-838 213,-838 219,-838 225,-844 225,-850 225,-850 225,-921 225,-921 225,-927 219,-933 213,-933"/>
<text text-anchor="middle" x="112.5" y="-909.2" font-family="Helvetica,sans-Serif" font-size="16.00">Protein&#45;derived hints</text>
<text text-anchor="middle" x="112.5" y="-872.2" font-family="Helvetica,sans-Serif" font-size="16.00">CDSpart (training genes)</text>
<text text-anchor="middle" x="112.5" y="-854.2" font-family="Helvetica,sans-Serif" font-size="16.00">HC chains · LC multiplicity</text>
</g>
<!-- miniprot&#45;&gt;hints -->
<g id="edge3" class="edge">
<title>miniprot&#45;&gt;hints</title>
<path fill="none" stroke="#555555" stroke-width="1.4" d="M112.5,-987.71C112.5,-973.31 112.5,-957.8 112.5,-943.35"/>
<polygon fill="#555555" stroke="#555555" stroke-width="1.4" points="116,-943.04 112.5,-933.04 109,-943.04 116,-943.04"/>
<text text-anchor="middle" x="127" y="-956.8" font-family="Helvetica,sans-Serif" font-size="14.00">hints</text>
</g>
<!-- augustus -->
<g id="node5" class="node">
<title>augustus</title>
<path fill="#fff2cc" stroke="#333333" stroke-width="1.6" d="M302,-783C302,-783 129,-783 129,-783 123,-783 117,-777 117,-771 117,-771 117,-682 117,-682 117,-676 123,-670 129,-670 129,-670 302,-670 302,-670 308,-670 314,-676 314,-682 314,-682 314,-771 314,-771 314,-777 308,-783 302,-783"/>
<text text-anchor="middle" x="215.5" y="-759.2" font-family="Helvetica,sans-Serif" font-size="16.00">AUGUSTUS</text>
<text text-anchor="middle" x="215.5" y="-741.2" font-family="Helvetica,sans-Serif" font-size="16.00">training + prediction</text>
<text text-anchor="middle" x="215.5" y="-704.2" font-family="Helvetica,sans-Serif" font-size="16.00">(etraining · optimize ·</text>
<text text-anchor="middle" x="215.5" y="-686.2" font-family="Helvetica,sans-Serif" font-size="16.00">hint&#45;guided prediction)</text>
</g>
<!-- miniprot&#45;&gt;augustus -->
<g id="edge4" class="edge">
<title>miniprot&#45;&gt;augustus</title>
<path fill="none" stroke="#555555" stroke-width="1.4" d="M193.38,-987.97C210.03,-972.29 225.29,-953.77 234.5,-933 254,-889.03 247.82,-834.67 237.54,-792.9"/>
<polygon fill="#555555" stroke="#555555" stroke-width="1.4" points="240.9,-791.91 235,-783.11 234.12,-793.67 240.9,-791.91"/>
<text text-anchor="middle" x="269" y="-889.3" font-family="Helvetica,sans-Serif" font-size="14.00">training</text>
<text text-anchor="middle" x="269" y="-874.3" font-family="Helvetica,sans-Serif" font-size="14.00">genes</text>
</g>
<!-- hints&#45;&gt;augustus -->
<g id="edge5" class="edge">
<title>hints&#45;&gt;augustus</title>
<path fill="none" stroke="#555555" stroke-width="1.4" stroke-dasharray="5,2" d="M143.12,-837.82C152.63,-823.33 163.28,-807.1 173.42,-791.64"/>
<polygon fill="#555555" stroke="#555555" stroke-width="1.4" points="176.44,-793.42 179,-783.14 170.59,-789.58 176.44,-793.42"/>
<text text-anchor="middle" x="186.5" y="-806.8" font-family="Helvetica,sans-Serif" font-size="14.00">hintsfile</text>
</g>
<!-- augustus&#45;&gt;postprocess -->
<g id="edge6" class="edge">
<title>augustus&#45;&gt;postprocess</title>
<path fill="none" stroke="#555555" stroke-width="1.4" d="M215.5,-669.76C215.5,-659.85 215.5,-649.44 215.5,-639.28"/>
<polygon fill="#555555" stroke="#555555" stroke-width="1.4" points="219,-639.23 215.5,-629.23 212,-639.23 219,-639.23"/>
</g>
<!-- qc -->
<g id="node7" class="node">
<title>qc</title>
<path fill="#cfbae1" stroke="#333333" stroke-width="1.4" d="M535.5,-475C535.5,-475 293.5,-475 293.5,-475 287.5,-475 281.5,-469 281.5,-463 281.5,-463 281.5,-374 281.5,-374 281.5,-368 287.5,-362 293.5,-362 293.5,-362 535.5,-362 535.5,-362 541.5,-362 547.5,-368 547.5,-374 547.5,-374 547.5,-463 547.5,-463 547.5,-469 541.5,-475 535.5,-475"/>
<text text-anchor="middle" x="414.5" y="-451.2" font-family="Helvetica,sans-Serif" font-size="16.00">Quality control</text>
<text text-anchor="middle" x="414.5" y="-414.2" font-family="Helvetica,sans-Serif" font-size="16.00">compleasm + BUSCO (optional)</text>
<text text-anchor="middle" x="414.5" y="-396.2" font-family="Helvetica,sans-Serif" font-size="16.00">OMArk (optional)</text>
<text text-anchor="middle" x="414.5" y="-378.2" font-family="Helvetica,sans-Serif" font-size="16.00">gffcompare (optional)</text>
</g>
<!-- postprocess&#45;&gt;qc -->
<g id="edge8" class="edge">
<title>postprocess&#45;&gt;qc</title>
<path fill="none" stroke="#555555" stroke-width="1.4" d="M288.19,-515.98C302.9,-504.75 318.45,-492.87 333.42,-481.43"/>
<polygon fill="#555555" stroke="#555555" stroke-width="1.4" points="335.85,-483.98 341.68,-475.12 331.6,-478.41 335.85,-483.98"/>
</g>
<!-- out_genes -->
<g id="node8" class="node">
<title>out_genes</title>
<polygon fill="#f4cccc" stroke="#333333" stroke-width="1.5" points="325,-282 100,-282 100,-224 331,-224 331,-276 325,-282"/>
<polyline fill="none" stroke="#333333" stroke-width="1.5" points="325,-282 325,-276 "/>
<polyline fill="none" stroke="#333333" stroke-width="1.5" points="331,-276 325,-276 "/>
<text text-anchor="middle" x="215.5" y="-258.2" font-family="Helvetica,sans-Serif" font-size="16.00">galba.gtf · galba.gff3</text>
<text text-anchor="middle" x="215.5" y="-240.2" font-family="Helvetica,sans-Serif" font-size="16.00">galba.aa · galba.codingseq</text>
</g>
<!-- postprocess&#45;&gt;out_genes -->
<g id="edge9" class="edge">
<title>postprocess&#45;&gt;out_genes</title>
<path fill="none" stroke="#555555" stroke-width="1.4" d="M215.5,-515.83C215.5,-451.67 215.5,-347.94 215.5,-292.25"/>
<polygon fill="#555555" stroke="#555555" stroke-width="1.4" points="219,-292.11 215.5,-282.11 212,-292.11 219,-292.11"/>
</g>
<!-- out_report -->
<g id="node9" class="node">
<title>out_report</title>
<polygon fill="#f4cccc" stroke="#333333" stroke-width="1.5" points="549.5,-291 349.5,-291 349.5,-215 555.5,-215 555.5,-285 549.5,-291"/>
<polyline fill="none" stroke="#333333" stroke-width="1.5" points="549.5,-291 549.5,-285 "/>
<polyline fill="none" stroke="#333333" stroke-width="1.5" points="555.5,-285 549.5,-285 "/>
<text text-anchor="middle" x="452.5" y="-267.2" font-family="Helvetica,sans-Serif" font-size="16.00">HTML report</text>
<text text-anchor="middle" x="452.5" y="-249.2" font-family="Helvetica,sans-Serif" font-size="16.00">+ citations.bib</text>
<text text-anchor="middle" x="452.5" y="-231.2" font-family="Helvetica,sans-Serif" font-size="16.00">+ software_versions.tsv</text>
</g>
<!-- qc&#45;&gt;out_report -->
<g id="edge10" class="edge">
<title>qc&#45;&gt;out_report</title>
<path fill="none" stroke="#555555" stroke-width="1.4" d="M427.47,-361.69C432.06,-341.93 437.18,-319.91 441.59,-300.96"/>
<polygon fill="#555555" stroke="#555555" stroke-width="1.4" points="445.03,-301.6 443.88,-291.07 438.21,-300.02 445.03,-301.6"/>
</g>
<!-- leg_req -->
<g id="node10" class="node">
<title>leg_req</title>
<path fill="#ffffff" stroke="#333333" stroke-width="1.5" d="M175.5,-80.5C175.5,-80.5 75.5,-80.5 75.5,-80.5 69.5,-80.5 63.5,-74.5 63.5,-68.5 63.5,-68.5 63.5,-53.5 63.5,-53.5 63.5,-47.5 69.5,-41.5 75.5,-41.5 75.5,-41.5 175.5,-41.5 175.5,-41.5 181.5,-41.5 187.5,-47.5 187.5,-53.5 187.5,-53.5 187.5,-68.5 187.5,-68.5 187.5,-74.5 181.5,-80.5 175.5,-80.5"/>
<text text-anchor="middle" x="125.5" y="-57.5" font-family="Helvetica,sans-Serif" font-size="15.00">required step</text>
</g>
<!-- out_genes&#45;&gt;leg_req -->
<!-- leg_out -->
<g id="node13" class="node">
<title>leg_out</title>
<polygon fill="#f4cccc" stroke="#333333" stroke-width="1.5" points="591,-80.5 518,-80.5 518,-41.5 597,-41.5 597,-74.5 591,-80.5"/>
<polyline fill="none" stroke="#333333" stroke-width="1.5" points="591,-80.5 591,-74.5 "/>
<polyline fill="none" stroke="#333333" stroke-width="1.5" points="597,-74.5 591,-74.5 "/>
<text text-anchor="middle" x="557.5" y="-57.5" font-family="Helvetica,sans-Serif" font-size="15.00">output</text>
</g>
<!-- out_report&#45;&gt;leg_out -->
<!-- leg_opt -->
<g id="node11" class="node">
<title>leg_opt</title>
<path fill="#ffffff" stroke="#333333" stroke-width="1.5" stroke-dasharray="5,2" d="M488,-89C488,-89 379,-89 379,-89 373,-89 367,-83 367,-77 367,-77 367,-45 367,-45 367,-39 373,-33 379,-33 379,-33 488,-33 488,-33 494,-33 500,-39 500,-45 500,-45 500,-77 500,-77 500,-83 494,-89 488,-89"/>
<text text-anchor="middle" x="433.5" y="-66" font-family="Helvetica,sans-Serif" font-size="15.00">optional step</text>
<text text-anchor="middle" x="433.5" y="-49" font-family="Helvetica,sans-Serif" font-size="15.00">(user enables)</text>
</g>
<!-- leg_in -->
<g id="node12" class="node">
<title>leg_in</title>
<path fill="#fdd9b4" stroke="#333333" stroke-width="1.5" d="M337.07,-100C337.07,-100 247.22,-100 247.22,-100 241.22,-100 233.11,-94.38 231,-88.77 231,-88.77 210.15,-33.23 210.15,-33.23 208.04,-27.62 211.93,-22 217.93,-22 217.93,-22 307.78,-22 307.78,-22 313.78,-22 321.89,-27.62 324,-33.23 324,-33.23 344.85,-88.77 344.85,-88.77 346.96,-94.38 343.07,-100 337.07,-100"/>
<text text-anchor="middle" x="277.5" y="-57.5" font-family="Helvetica,sans-Serif" font-size="15.00">input</text>
</g>
</g>
</svg>
